<svg version="1.2" xmlns="http://www.w3.org/2000/svg" viewBox="0 0 344 512" width="344" height="512">
	<defs>
		<clipPath clipPathUnits="userSpaceOnUse" id="cp1">
			<path d="m85.24 230.78c0 0 3.05 174.25 0.49 184.68-2.08 8.49-8.29 38.24-41.63 37.86-33.34-0.39-47.93-26.68-39.04-35.21 3.93-3.77 9.64-13.3 20.04-12.72 13.16 0.74 26.74 7.67 26.46-3.24-0.54-20.93 0-178.7 0-178.7z"/>
		</clipPath>
		<clipPath clipPathUnits="userSpaceOnUse" id="cp2">
			<path d="m167.54 256.37c0 0 85.1 171.97 92.2 179.38 6.41 6.68 26.99 32.78 56.54 17.03 29.54-15.75 28.95-47.49 16.73-51.67-5.39-1.84-15.26-8.46-24.24-3.09-11.37 6.79-20 19.77-25.22 9.06-10.02-20.55-89.64-173.35-89.64-173.35z"/>
		</clipPath>
	</defs>
	<style>
		.s0 { fill: #000000 } 
		.s1 { fill: #ffffff;stroke: #000000;stroke-linecap: round;stroke-linejoin: round;stroke-width: .4 } 
		.s2 { fill: none;stroke: #000000;stroke-linecap: round;stroke-linejoin: round;stroke-width: 1 } 
		.s3 { fill: #000000;stroke: #000000;stroke-linecap: round;stroke-linejoin: round;stroke-width: 1 } 
		.s4 { fill: #ffffff } 
		.s5 { fill: #ffffff;stroke: #000000;stroke-linecap: round;stroke-linejoin: round;stroke-width: 1 } 
	</style>
	<g>
		<path fill-rule="evenodd" class="s0" d="m85.24 230.78c0 0 3.05 174.25 0.49 184.68-2.08 8.49-8.29 38.24-41.63 37.86-33.34-0.39-47.93-26.68-39.04-35.21 3.93-3.77 9.64-13.3 20.04-12.72 13.16 0.74 26.74 7.67 26.46-3.24-0.54-20.93 0-178.7 0-178.7z"/>
		<g id="Clip-Path" clip-path="url(#cp1)">
			<g>
				<g>
					<path fill-rule="evenodd" class="s1" d="m41.32 440.8c-11.34 0-20.5-5.4-20.5-12.07 0-6.68 9.16-12.08 20.5-12.08 11.34 0 20.51 5.4 20.51 12.08 0 6.67-9.17 12.07-20.51 12.07z"/>
				</g>
			</g>
		</g>
		<path fill-rule="evenodd" class="s2" d="m85.24 230.78c0 0 3.05 174.25 0.49 184.68-2.08 8.49-8.29 38.24-41.63 37.86-33.34-0.39-47.93-26.68-39.04-35.21 3.93-3.77 9.64-13.3 20.04-12.72 13.16 0.74 26.74 7.67 26.46-3.24-0.54-20.93 0-178.7 0-178.7z"/>
	</g>
	<g>
		<path fill-rule="evenodd" class="s3" d="m83.71 293.36c18.65 3.66 37.81 13.55 56.65 13.18 16.78-0.33 33.8-4.64 50.29-8.98l10.95 25.6c-6.09 0.6-33.43 11.83-59.41 14.55-27.85 2.92-54.35-10.95-57.66-11.26"/>
	</g>
	<g>
		<path fill-rule="evenodd" class="s0" d="m167.54 256.37c0 0 85.1 171.97 92.2 179.38 6.41 6.68 26.99 32.78 56.54 17.03 29.54-15.75 28.95-47.49 16.73-51.67-5.39-1.84-15.26-8.46-24.24-3.09-11.37 6.79-20 19.77-25.22 9.06-10.02-20.55-89.64-173.35-89.64-173.35z"/>
		<g id="Clip-Path" clip-path="url(#cp2)">
			<g>
				<g>
					<path fill-rule="evenodd" class="s1" d="m315.64 437.27c-10.32 7.97-22.16 9.69-26.5 3.84-4.34-5.85 0.5-17.02 10.82-24.99 10.32-7.97 22.16-9.69 26.5-3.85 4.34 5.85-0.5 17.02-10.82 25z"/>
				</g>
			</g>
		</g>
		<path fill-rule="evenodd" class="s2" d="m167.54 256.37c0 0 85.1 171.97 92.2 179.38 6.41 6.68 26.99 32.78 56.54 17.03 29.54-15.75 28.95-47.49 16.73-51.67-5.39-1.84-15.26-8.46-24.24-3.09-11.37 6.79-20 19.77-25.22 9.06-10.02-20.55-89.64-173.35-89.64-173.35z"/>
	</g>
	<g>
		<g>
			<path fill-rule="evenodd" class="s0" d="m190.18 278.13c-68.12 18.4-138.05-21.79-156.44-89.91-18.4-68.12 21.79-138.05 89.91-156.45 68.11-18.39 138.04 21.8 156.44 89.92 18.4 68.11-21.79 138.04-89.91 156.44z"/>
		</g>
		<g>
			<path fill-rule="evenodd" class="s4" d="m165.34 186.17c-17.26 4.66-34.98-5.52-39.65-22.79-4.66-17.26 5.53-34.99 22.79-39.65 17.27-4.66 34.99 5.53 39.65 22.79 4.67 17.27-5.52 34.99-22.79 39.65z"/>
		</g>
		<g>
			<path fill-rule="evenodd" class="s0" d="m161.13 170.56c-8.63 2.33-17.5-2.76-19.83-11.39-2.33-8.63 2.77-17.5 11.4-19.83 8.63-2.33 17.49 2.76 19.82 11.4 2.33 8.63-2.76 17.49-11.39 19.82z"/>
		</g>
	</g>
	<g>
		<g>
			<path fill-rule="evenodd" class="s5" d="m114.55 134.48c-17.37 25.45-16.53 43.97 16.87 62.44 3.18 1.76-11.41-18.05-17.31-27.63-5.9-9.57 4.53-40.8 0.44-34.81z"/>
		</g>
		<g>
			<path fill-rule="evenodd" class="s5" d="m92.9 127.76c-19.98 23.48-17.06 68.33 22.6 83.66 3.42 1.32-14.48-25.14-21.72-37.7-7.24-12.57 4.53-52.32-0.88-45.96z"/>
		</g>
		<g>
			<path fill-rule="evenodd" class="s5" d="m64.69 115.02c-21.52 31.52-9.6 104.63 32.05 118.69 3.48 1.17-24.73-46.79-27.91-58.43-1.36-4.98-3.48-61.23-4.14-60.26z"/>
		</g>
	</g>
	<g>
		<g>
			<path fill-rule="evenodd" class="s5" d="m197.6 179.54c16.07-30.19 18.34-48.79-18.72-69.29-3.53-1.95 18.07 30.04 19.4 32.56 1.33 2.52-4.67 44.23-0.68 36.73z"/>
		</g>
		<g>
			<path fill-rule="evenodd" class="s5" d="m221.62 187c26.35-30.28 18.93-75.83-25.07-92.85-3.8-1.46 19.92 26.37 24.09 41.84 4.18 15.48-1.57 53.94 0.98 51.01z"/>
		</g>
		<g>
			<path fill-rule="evenodd" class="s5" d="m252.93 201.13c16.95-30.55 10.65-116.11-35.57-131.71-3.86-1.3 27.44 51.92 30.98 64.84 1.5 5.52 3.96 68.01 4.59 66.87z"/>
		</g>
	</g>
</svg>