<?xml version="1.0" encoding="UTF-8" standalone="no"?>
<!DOCTYPE svg PUBLIC "-//W3C//DTD SVG 1.1//EN" "http://www.w3.org/Graphics/SVG/1.1/DTD/svg11.dtd">
<svg width="100%" height="100%" viewBox="0 0 512 512" version="1.1" xmlns="http://www.w3.org/2000/svg" xmlns:xlink="http://www.w3.org/1999/xlink" xml:space="preserve" xmlns:serif="http://www.serif.com/" style="fill-rule:evenodd;clip-rule:evenodd;stroke-linejoin:round;stroke-miterlimit:2;">
    <g transform="matrix(1.487291,0,0,1.173939,-94.593216,-98.935897)">
        <path d="M145.305,362.852C145.559,398.858 145.585,433.994 144.776,438.18C143.38,445.408 139.202,470.754 116.786,470.427C94.37,470.101 84.558,447.704 90.538,440.434C93.178,437.226 97.017,429.106 104.01,429.604C112.86,430.235 121.986,436.139 121.798,426.845C121.469,410.591 121.74,297.454 121.79,277.595C116.499,267.791 112.397,256.715 109.816,244.607C97.472,186.697 124.56,126.983 170.27,111.343C215.979,95.704 263.112,130.022 275.457,187.933C286.37,239.131 266.463,291.739 230.115,314.054C246.38,353.674 273.147,418.999 277.781,431.038C281.293,440.164 287.095,429.105 294.738,423.322C300.777,418.753 307.416,424.386 311.04,425.957C319.252,429.515 319.648,456.556 299.786,469.97C279.923,483.384 266.084,461.152 261.775,455.46C259.019,451.82 238.816,401.539 222.211,359.636C217.326,360.712 199.607,369.71 182.735,371.949C166.134,374.151 150.248,365.115 145.305,362.852ZM130.628,182.257C116.163,209.107 124.174,271.382 152.179,283.357C154.521,284.358 135.553,243.502 133.413,233.584C132.499,229.348 131.073,181.43 130.628,182.257ZM236.143,243.567C253.862,217.78 248.873,178.976 219.285,164.479C216.732,163.229 232.677,186.94 235.487,200.121C238.297,213.302 234.427,246.066 236.143,243.567ZM257.196,255.603C268.591,229.586 264.357,156.7 233.28,143.412C230.682,142.301 251.731,187.639 254.105,198.645C255.12,203.345 256.77,256.575 257.196,255.603ZM219.991,237.215C230.795,211.495 232.326,195.65 207.409,178.192C205.032,176.526 219.554,203.783 220.448,205.929C221.342,208.075 217.307,243.604 219.991,237.215ZM149.599,193.103C136.164,213.111 138.128,251.309 164.791,264.372C167.091,265.499 155.057,242.96 150.19,232.254C145.323,221.548 153.234,187.689 149.599,193.103ZM114.918,439.194C107.308,439.194 101.13,443.803 101.13,449.48C101.13,455.156 107.308,459.765 114.918,459.765C122.528,459.765 128.706,455.156 128.706,449.48C128.706,443.803 122.528,439.194 114.918,439.194ZM186.968,189.676C175.382,193.64 168.517,208.775 171.645,223.452C174.774,238.13 186.72,246.828 198.306,242.864C209.891,238.9 216.757,223.766 213.628,209.088C210.499,194.41 198.553,185.712 186.968,189.676ZM192.761,199.463C200.047,199.463 205.961,206.956 205.961,216.186C205.961,225.415 200.047,232.909 192.761,232.909C185.476,232.909 179.562,225.415 179.562,216.186C179.562,206.956 185.476,199.463 192.761,199.463ZM144.765,306.437C144.861,314.65 144.966,324.311 145.066,334.611C157.084,338.013 169.391,345.697 181.504,345.399C192.264,345.134 203.166,341.78 213.763,338.262C211.611,332.802 209.618,327.736 207.85,323.239C185.256,328.425 162.774,321.767 144.765,306.437ZM288.813,438.741C281.889,445.52 278.63,455.059 281.54,460.03C284.451,465.001 292.436,463.533 299.361,456.754C306.286,449.975 309.545,440.436 306.634,435.465C303.723,430.494 295.738,431.962 288.813,438.741ZM164.155,198.827C152.471,220.512 153.039,236.282 175.493,252.015C177.635,253.516 167.827,236.641 163.858,228.488C159.889,220.334 166.903,193.727 164.155,198.827Z"/>
        <path d="M118.399,427.668C118.42,427.46 118.441,427.18 118.437,426.954C118.114,411.013 118.367,301.97 118.425,278.892C113.211,268.979 109.156,257.846 106.571,245.718C93.743,185.538 121.892,123.484 169.393,107.231C216.894,90.979 265.874,126.642 278.702,186.822C289.732,238.563 270.469,291.687 234.662,315.9C251.037,355.798 276.311,417.501 280.803,429.172C280.942,429.534 281.169,429.941 281.305,430.171C281.776,429.868 283.38,428.809 284.432,427.786C286.963,425.324 289.841,422.066 293.014,419.665C296.919,416.711 301.006,416.904 304.714,418.24C307.647,419.297 310.275,421.124 312.128,421.927C315.566,423.416 318.267,427.621 319.273,433.611C321.164,444.874 317.003,463.169 301.367,473.728C279.49,488.502 264.094,464.677 259.349,458.409C258.729,457.59 257.264,454.721 255.264,450.202C248.349,434.575 233.442,397.44 220.404,364.568C213.488,367.037 197.957,374.212 183.085,376.185C169.392,378.001 156.156,372.542 148.707,369.036C148.915,403.277 148.815,435.19 148.042,439.193C146.491,447.218 141.634,475.048 116.748,474.686C99.118,474.429 88.649,461.551 86.125,451.328C84.721,445.639 85.593,440.543 88.211,437.361C89.562,435.719 91.229,432.831 93.443,430.406C96.216,427.371 99.718,425.032 104.198,425.352C108.666,425.671 113.205,427.309 116.602,427.705C117.217,427.777 118.03,427.707 118.399,427.668ZM145.305,362.852C150.248,365.115 166.134,374.151 182.735,371.949C199.607,369.71 217.326,360.712 222.211,359.636C238.816,401.539 259.019,451.82 261.775,455.46C266.084,461.152 279.923,483.384 299.786,469.97C319.648,456.556 319.252,429.515 311.04,425.957C307.416,424.386 300.777,418.753 294.738,423.322C287.095,429.105 281.293,440.164 277.781,431.038C273.147,418.999 246.38,353.674 230.115,314.054C266.463,291.739 286.37,239.131 275.457,187.933C263.112,130.022 215.979,95.704 170.27,111.343C124.56,126.983 97.472,186.697 109.816,244.607C112.397,256.715 116.499,267.791 121.79,277.595C121.74,297.454 121.469,410.591 121.798,426.845C121.986,436.139 112.86,430.235 104.01,429.604C97.017,429.106 93.178,437.226 90.538,440.434C84.558,447.704 94.37,470.101 116.786,470.427C139.202,470.754 143.38,445.408 144.776,438.18C145.585,433.994 145.559,398.858 145.305,362.852ZM114.918,439.194C122.528,439.194 128.706,443.803 128.706,449.48C128.706,455.156 122.528,459.765 114.918,459.765C107.308,459.765 101.13,455.156 101.13,449.48C101.13,443.803 107.308,439.194 114.918,439.194ZM114.918,443.453C111.783,443.453 108.932,444.345 106.876,445.878C105.556,446.863 104.491,447.979 104.491,449.48C104.491,450.98 105.556,452.097 106.876,453.081C108.932,454.615 111.783,455.506 114.918,455.506C118.053,455.506 120.904,454.615 122.96,453.081C124.279,452.097 125.344,450.98 125.344,449.48C125.344,447.979 124.279,446.863 122.96,445.878C120.904,444.345 118.053,443.453 114.918,443.453ZM144.765,306.437C162.774,321.767 185.256,328.425 207.85,323.239C209.618,327.736 211.611,332.802 213.763,338.262C203.166,341.78 192.264,345.134 181.504,345.399C169.391,345.697 157.084,338.013 145.066,334.611C144.966,324.311 144.861,314.65 144.765,306.437ZM148.215,314.171C148.274,319.5 148.336,325.25 148.395,331.253C159.327,334.864 170.454,341.411 181.438,341.14C190.585,340.916 199.833,338.377 208.9,335.456C207.869,332.837 206.882,330.33 205.95,327.957C185.493,331.898 165.248,326.575 148.215,314.171ZM164.155,198.827C166.903,193.727 159.889,220.334 163.858,228.488C167.827,236.641 177.635,253.516 175.493,252.015C153.039,236.282 152.471,220.512 164.155,198.827ZM130.628,182.257C131.073,181.43 132.499,229.348 133.413,233.584C135.553,243.502 154.521,284.358 152.179,283.357C124.174,271.382 116.163,209.107 130.628,182.257ZM144.79,273.457C139.632,260.967 131.473,240.745 130.17,234.707C129.628,232.194 128.88,214.515 128.266,200.447C126.266,211.66 126.491,224.924 128.754,237.433C131.36,251.835 136.678,265.368 144.79,273.457ZM236.143,243.567C234.427,246.066 238.297,213.302 235.487,200.121C232.677,186.94 216.732,163.229 219.285,164.479C248.873,178.976 253.862,217.78 236.143,243.567ZM228.926,175.932C232.951,183.475 237.343,192.49 238.733,199.011C240.28,206.268 239.968,219.202 239.518,229.441C243.001,220.223 243.927,210.183 242.181,200.763C240.437,191.351 236.024,182.617 228.926,175.932ZM219.991,237.215C217.307,243.604 221.342,208.075 220.448,205.929C219.554,203.783 205.032,176.526 207.409,178.192C232.326,195.65 230.795,211.495 219.991,237.215ZM217.405,192.052C220.311,197.783 223.047,203.043 223.421,203.942C223.66,204.516 224.007,206.489 223.904,209.405C223.851,210.931 223.734,212.882 223.588,215.044C224.14,211.669 224.246,208.473 223.791,205.388C223.093,200.662 221.046,196.331 217.405,192.052ZM186.968,189.676C198.553,185.712 210.499,194.41 213.628,209.088C216.757,223.766 209.891,238.9 198.306,242.864C186.72,246.828 174.774,238.13 171.645,223.452C168.517,208.775 175.382,193.64 186.968,189.676ZM187.844,193.788C178.05,197.139 172.246,209.933 174.891,222.342C177.536,234.75 187.635,242.104 197.429,238.752C207.223,235.401 213.027,222.607 210.382,210.198C207.737,197.79 197.638,190.437 187.844,193.788ZM192.761,195.203C201.902,195.203 209.323,204.605 209.323,216.186C209.323,227.766 201.902,237.168 192.761,237.168C183.621,237.168 176.2,227.766 176.2,216.186C176.2,204.605 183.621,195.203 192.761,195.203ZM192.761,199.463C185.476,199.463 179.562,206.956 179.562,216.186C179.562,225.415 185.476,232.909 192.761,232.909C200.047,232.909 205.961,225.415 205.961,216.186C205.961,206.956 200.047,199.463 192.761,199.463ZM257.196,255.603C256.77,256.575 255.12,203.345 254.105,198.645C251.731,187.639 230.682,142.301 233.28,143.412C264.357,156.7 268.591,229.586 257.196,255.603ZM240.592,153.238C246.268,166.949 255.857,190.611 257.348,197.522C257.88,199.987 258.606,215.623 259.241,229.998C260.386,215.297 259.187,197.803 255.212,182.48C252.137,170.627 247.398,160.01 240.592,153.238ZM149.599,193.103C153.234,187.689 145.323,221.548 150.19,232.254C155.057,242.96 167.091,265.499 164.791,264.372C138.128,251.309 136.164,213.111 149.599,193.103ZM156.738,253.798C153.498,247.183 149.584,239.454 147.277,234.38C145.477,230.42 144.986,223.754 145.289,216.678C145.328,215.782 145.377,214.88 145.436,213.977C143.3,227.896 146.547,243.641 156.738,253.798ZM288.813,438.741C295.738,431.962 303.723,430.494 306.634,435.465C309.545,440.436 306.286,449.975 299.361,456.754C292.436,463.533 284.451,465.001 281.54,460.03C278.63,455.059 281.889,445.52 288.813,438.741ZM290.869,442.111C287.374,445.532 284.909,449.713 284.089,453.475C283.751,455.024 283.635,456.459 284.24,457.492C285.053,458.879 286.662,458.914 288.463,458.583C291.208,458.079 294.359,456.268 297.306,453.384C300.8,449.963 303.265,445.782 304.085,442.02C304.423,440.471 304.539,439.036 303.934,438.003C303.122,436.616 301.512,436.581 299.712,436.912C296.967,437.416 293.815,439.227 290.869,442.111Z" style="fill:white;"/>
    </g>
</svg>
