<?xml version="1.0" encoding="UTF-8" standalone="no"?>
<!DOCTYPE svg PUBLIC "-//W3C//DTD SVG 1.1//EN" "http://www.w3.org/Graphics/SVG/1.1/DTD/svg11.dtd">
<svg width="100%" height="100%" viewBox="0 0 512 512" version="1.1" xmlns="http://www.w3.org/2000/svg" xmlns:xlink="http://www.w3.org/1999/xlink" xml:space="preserve" xmlns:serif="http://www.serif.com/" style="fill-rule:evenodd;clip-rule:evenodd;stroke-linecap:round;stroke-linejoin:round;stroke-miterlimit:1.5;">
    <g transform="matrix(1.487291,0,0,1.173939,-94.593216,-98.935897)">
        <path d="M144.446,280.865C144.446,280.865 146.494,429.292 144.776,438.18C143.38,445.408 139.202,470.754 116.786,470.427C94.37,470.101 84.558,447.704 90.538,440.434C93.178,437.226 97.017,429.106 104.01,429.604C112.86,430.235 121.986,436.139 121.798,426.845C121.437,409.016 121.798,274.622 121.798,274.622L144.446,280.865Z"/>
        <clipPath id="_clip1">
            <path d="M144.446,280.865C144.446,280.865 146.494,429.292 144.776,438.18C143.38,445.408 139.202,470.754 116.786,470.427C94.37,470.101 84.558,447.704 90.538,440.434C93.178,437.226 97.017,429.106 104.01,429.604C112.86,430.235 121.986,436.139 121.798,426.845C121.437,409.016 121.798,274.622 121.798,274.622L144.446,280.865Z"/>
        </clipPath>
        <g clip-path="url(#_clip1)">
            <g transform="matrix(0.672363,0,0,0.813745,63.947878,98.569232)">
                <ellipse cx="75.807" cy="431.229" rx="20.507" ry="12.64" style="fill:white;stroke:black;stroke-width:0.43px;"/>
            </g>
        </g>
        <path d="M144.446,280.865C144.446,280.865 146.494,429.292 144.776,438.18C143.38,445.408 139.202,470.754 116.786,470.427C94.37,470.101 84.558,447.704 90.538,440.434C93.178,437.226 97.017,429.106 104.01,429.604C112.86,430.235 121.986,436.139 121.798,426.845C121.437,409.016 121.798,274.622 121.798,274.622L144.446,280.865Z" style="fill:none;stroke:black;stroke-width:0.75px;"/>
    </g>
    <g transform="matrix(1.20452,0,0,1.645276,-26.366939,-186.597862)">
        <path d="M120.442,291.72C135.925,293.946 151.83,299.953 167.471,299.73C181.408,299.532 195.536,296.909 209.223,294.269L218.318,309.829C213.261,310.194 190.565,317.02 168.991,318.674C145.872,320.447 123.876,312.018 121.122,311.828" style="stroke:black;stroke-width:0.69px;"/>
    </g>
    <g transform="matrix(-1.326452,0.685909,0.588862,1.138777,228.7539,-162.545996)">
        <path d="M144.446,280.865C144.446,280.865 146.724,430.501 144.776,438.18C143.02,445.106 138.804,470.563 116.388,470.237C93.972,469.91 84.558,447.704 90.538,440.434C93.178,437.226 97.017,429.106 104.01,429.604C112.86,430.235 121.986,436.139 121.798,426.845C121.437,409.016 121.798,274.622 121.798,274.622L144.446,280.865Z"/>
        <clipPath id="_clip2">
            <path d="M144.446,280.865C144.446,280.865 146.724,430.501 144.776,438.18C143.02,445.106 138.804,470.563 116.388,470.237C93.972,469.91 84.558,447.704 90.538,440.434C93.178,437.226 97.017,429.106 104.01,429.604C112.86,430.235 121.986,436.139 121.798,426.845C121.437,409.016 121.798,274.622 121.798,274.622L144.446,280.865Z"/>
        </clipPath>
        <g clip-path="url(#_clip2)">
            <g transform="matrix(-0.757549,-0.161136,-0.111833,0.801938,219.0581,115.521126)">
                <ellipse cx="75.807" cy="431.229" rx="20.507" ry="12.64" style="fill:white;stroke:black;stroke-width:0.38px;"/>
            </g>
        </g>
        <path d="M144.446,280.865C144.446,280.865 146.724,430.501 144.776,438.18C143.02,445.106 138.804,470.563 116.388,470.237C93.972,469.91 84.558,447.704 90.538,440.434C93.178,437.226 97.017,429.106 104.01,429.604C112.86,430.235 121.986,436.139 121.798,426.845C121.437,409.016 121.798,274.622 121.798,274.622L144.446,280.865Z" style="fill:none;stroke:black;stroke-width:0.72px;"/>
    </g>
    <g transform="matrix(0.965413,-0.260725,0.260725,0.965413,-7.847017,48.39713)">
        <g transform="matrix(1,0,0,1,-77.933558,-40.934798)">
            <circle cx="243.003" cy="195.887" r="127.591"/>
        </g>
        <g transform="matrix(0.253455,0,0,0.253455,103.479393,105.303514)">
            <circle cx="243.003" cy="195.887" r="127.591" style="fill:white;"/>
        </g>
        <g transform="matrix(0.126728,0,0,0.126728,134.27462,130.127773)">
            <circle cx="243.003" cy="195.887" r="127.591"/>
        </g>
    </g>
    <g transform="matrix(0.965413,-0.260725,0.260725,0.965413,-7.847017,48.39713)">
        <g transform="matrix(-1.055449,0,0,1,337.867509,1.524853)">
            <path d="M197.408,122.614C219.592,142.659 223.392,160.753 197.408,187.291C194.929,189.822 203.378,166.894 206.414,156.114C209.449,145.335 192.191,117.899 197.408,122.614Z" style="fill:white;stroke:black;stroke-width:0.97px;"/>
        </g>
        <g transform="matrix(-1.055449,0,0,1,312.9418,1.524853)">
            <path d="M191.934,110.482C216.014,127.948 224.419,172.001 191.934,197.145C189.132,199.314 198.967,169.103 202.483,155.083C206,141.062 185.419,105.756 191.934,110.482Z" style="fill:white;stroke:black;stroke-width:0.97px;"/>
        </g>
        <g transform="matrix(-1.055449,0,0,1,288.613832,1.524853)">
            <path d="M191.547,90.833C219.012,115.654 226.173,189.34 191.547,213.771C188.652,215.814 202.608,162.154 202.643,150.084C202.658,144.929 190.702,90.069 191.547,90.833Z" style="fill:white;stroke:black;stroke-width:0.97px;"/>
        </g>
    </g>
    <g transform="matrix(-1.071324,0.289328,-0.289328,-1.071324,407.264594,275.061085)">
        <g transform="matrix(-1.055449,0,0,1,337.867509,1.524853)">
            <path d="M197.408,122.614C217.375,145.106 223.392,160.753 197.408,187.291C194.929,189.822 205.609,156.91 206.144,154.406C206.679,151.902 192.448,117.026 197.408,122.614Z" style="fill:white;stroke:black;stroke-width:0.88px;"/>
        </g>
        <g transform="matrix(-1.055449,0,0,1,312.9418,1.524853)">
            <path d="M191.934,110.482C220.395,130.627 224.419,172.001 191.934,197.145C189.132,199.314 202.483,169.527 202.483,155.083C202.483,140.639 189.177,108.53 191.934,110.482Z" style="fill:white;stroke:black;stroke-width:0.88px;"/>
        </g>
        <g transform="matrix(-1.055449,0,0,1,288.613832,1.524853)">
            <path d="M191.547,90.833C212.317,113.423 226.173,189.34 191.547,213.771C188.652,215.814 202.608,162.154 202.643,150.084C202.658,144.929 190.772,89.99 191.547,90.833Z" style="fill:white;stroke:black;stroke-width:0.88px;"/>
        </g>
    </g>
</svg>
